<svg xmlns="http://www.w3.org/2000/svg" viewBox="0 0 1000 889"><rect width="1000" height="889" fill="#EDEFE8"/><polygon points="119.3,446.6 129.2,459.2 201.3,402.5 191.3,389.9 119.3,446.6" fill="#CDD2C2" stroke="#1C2B26" stroke-width="1"/><polygon points="129.2,459.2 144.1,478.1 216.1,421.4 201.3,402.5 129.2,459.2" fill="#CDD2C2" stroke="#1C2B26" stroke-width="1"/><polygon points="144.1,478.1 158.1,495.8 230.1,439.1 216.1,421.4 144.1,478.1" fill="#CDD2C2" stroke="#1C2B26" stroke-width="1"/><polygon points="158.1,495.8 177.9,521.0 249.9,464.2 230.1,439.1 158.1,495.8" fill="#CDD2C2" stroke="#1C2B26" stroke-width="1"/><polygon points="177.9,521.0 191.5,538.2 263.5,481.4 249.9,464.2 177.9,521.0" fill="#CDD2C2" stroke="#1C2B26" stroke-width="1"/><polygon points="191.5,538.2 219.3,573.5 291.4,516.7 263.5,481.4 191.5,538.2" fill="#CDD2C2" stroke="#1C2B26" stroke-width="1"/><polygon points="219.3,573.5 232.7,590.4 304.7,533.7 291.4,516.7 219.3,573.5" fill="#CDD2C2" stroke="#1C2B26" stroke-width="1"/><polygon points="232.7,590.4 248.1,610.0 320.2,553.2 304.7,533.7 232.7,590.4" fill="#CDD2C2" stroke="#1C2B26" stroke-width="1"/><polygon points="248.1,610.0 263.6,629.6 335.6,572.9 320.2,553.2 248.1,610.0" fill="#CDD2C2" stroke="#1C2B26" stroke-width="1"/><polygon points="263.6,629.6 277.1,646.7 349.1,590.0 335.6,572.9 263.6,629.6" fill="#CDD2C2" stroke="#1C2B26" stroke-width="1"/><polygon points="277.1,646.7 294.1,668.3 366.1,611.5 349.1,590.0 277.1,646.7" fill="#CDD2C2" stroke="#1C2B26" stroke-width="1"/><polygon points="294.1,668.3 311.0,689.8 383.1,633.0 366.1,611.5 294.1,668.3" fill="#CDD2C2" stroke="#1C2B26" stroke-width="1"/><polygon points="311.0,689.8 331.6,715.9 403.6,659.1 383.1,633.0 311.0,689.8" fill="#CDD2C2" stroke="#1C2B26" stroke-width="1"/><polygon points="331.6,715.9 344.9,732.7 416.9,676.0 403.6,659.1 331.6,715.9" fill="#CDD2C2" stroke="#1C2B26" stroke-width="1"/><polygon points="344.9,732.7 365.0,758.2 437.0,701.4 416.9,676.0 344.9,732.7" fill="#CDD2C2" stroke="#1C2B26" stroke-width="1"/><polygon points="365.0,758.2 378.6,775.5 450.7,718.7 437.0,701.4 365.0,758.2" fill="#CDD2C2" stroke="#1C2B26" stroke-width="1"/><polygon points="378.6,775.5 396.0,797.5 468.0,740.8 450.7,718.7 378.6,775.5" fill="#CDD2C2" stroke="#1C2B26" stroke-width="1"/><polygon points="396.0,797.5 418.2,825.6 490.2,768.9 468.0,740.8 396.0,797.5" fill="#CDD2C2" stroke="#1C2B26" stroke-width="1"/><polygon points="418.2,825.6 468.1,889.0 540.1,832.2 490.2,768.9 418.2,825.6" fill="#CDD2C2" stroke="#1C2B26" stroke-width="1"/><polygon points="101.6,329.3 129.4,364.7 160.7,340.0 132.8,304.7 101.6,329.3" fill="#CDD2C2" stroke="#1C2B26" stroke-width="1"/><polygon points="129.4,364.7 157.3,400.0 188.6,375.4 160.7,340.0 129.4,364.7" fill="#CDD2C2" stroke="#1C2B26" stroke-width="1"/><polygon points="132.8,304.7 188.6,375.4 208.9,359.3 153.2,288.7 132.8,304.7" fill="#CDD2C2" stroke="#1C2B26" stroke-width="1"/><polygon points="153.2,288.7 208.9,359.3 228.2,344.1 172.5,273.4 153.2,288.7" fill="#CDD2C2" stroke="#1C2B26" stroke-width="1"/><polygon points="172.5,273.4 228.2,344.1 247.6,328.9 191.8,258.2 172.5,273.4" fill="#CDD2C2" stroke="#1C2B26" stroke-width="1"/><polygon points="191.8,258.2 247.6,328.9 266.9,313.6 211.1,243.0 191.8,258.2" fill="#CDD2C2" stroke="#1C2B26" stroke-width="1"/><polygon points="211.1,243.0 266.9,313.6 286.2,298.4 230.4,227.7 211.1,243.0" fill="#CDD2C2" stroke="#1C2B26" stroke-width="1"/><polygon points="230.4,227.7 286.2,298.4 331.9,262.4 276.1,191.7 230.4,227.7" fill="#CDD2C2" stroke="#1C2B26" stroke-width="1"/><circle cx="94.9" cy="383.9" r="3" fill="#C25E33" fill-opacity="0.6"/><circle cx="95.0" cy="383.8" r="1.5" fill="#C25E33" fill-opacity="0.6"/><circle cx="95.0" cy="383.8" r="1.5" fill="#C25E33" fill-opacity="0.6"/><circle cx="106.2" cy="393.3" r="3" fill="#C25E33" fill-opacity="0.6"/><circle cx="106.2" cy="393.3" r="1.5" fill="#C25E33" fill-opacity="0.6"/><circle cx="106.2" cy="393.3" r="1.5" fill="#C25E33" fill-opacity="0.6"/><circle cx="105.4" cy="391.2" r="3" fill="#C25E33" fill-opacity="0.6"/><circle cx="105.4" cy="391.2" r="1.5" fill="#C25E33" fill-opacity="0.6"/><circle cx="105.4" cy="391.2" r="1.5" fill="#C25E33" fill-opacity="0.6"/><circle cx="119.8" cy="376.5" r="3" fill="#C25E33" fill-opacity="0.6"/><circle cx="119.7" cy="376.9" r="1.5" fill="#C25E33" fill-opacity="0.6"/><circle cx="119.7" cy="376.9" r="1.5" fill="#C25E33" fill-opacity="0.6"/><circle cx="156.0" cy="392.0" r="3" fill="#C25E33" fill-opacity="0.6"/><circle cx="156.0" cy="392.1" r="1.5" fill="#C25E33" fill-opacity="0.6"/><circle cx="156.0" cy="392.1" r="1.5" fill="#C25E33" fill-opacity="0.6"/><circle cx="185.3" cy="380.7" r="3" fill="#C25E33" fill-opacity="0.6"/><circle cx="185.3" cy="380.7" r="1.5" fill="#C25E33" fill-opacity="0.6"/><circle cx="185.3" cy="380.7" r="1.5" fill="#C25E33" fill-opacity="0.6"/><circle cx="185.7" cy="380.7" r="3" fill="#C25E33" fill-opacity="0.6"/><circle cx="185.7" cy="380.7" r="1.5" fill="#C25E33" fill-opacity="0.6"/><circle cx="185.7" cy="380.7" r="1.5" fill="#C25E33" fill-opacity="0.6"/><circle cx="179.3" cy="402.7" r="3" fill="#C25E33" fill-opacity="0.6"/><circle cx="179.2" cy="402.7" r="1.5" fill="#C25E33" fill-opacity="0.6"/><circle cx="179.2" cy="402.7" r="1.5" fill="#C25E33" fill-opacity="0.6"/><circle cx="184.8" cy="409.6" r="3" fill="#C25E33" fill-opacity="0.6"/><circle cx="184.8" cy="409.6" r="1.5" fill="#C25E33" fill-opacity="0.6"/><circle cx="184.8" cy="409.6" r="1.5" fill="#C25E33" fill-opacity="0.6"/><circle cx="184.7" cy="410.1" r="3" fill="#C25E33" fill-opacity="0.6"/><circle cx="184.7" cy="410.1" r="1.5" fill="#C25E33" fill-opacity="0.6"/><circle cx="184.7" cy="410.1" r="1.5" fill="#C25E33" fill-opacity="0.6"/><circle cx="192.0" cy="420.1" r="3" fill="#C25E33" fill-opacity="0.6"/><circle cx="192.0" cy="420.2" r="1.5" fill="#C25E33" fill-opacity="0.6"/><circle cx="192.0" cy="420.2" r="1.5" fill="#C25E33" fill-opacity="0.6"/><circle cx="203.9" cy="434.4" r="3" fill="#C25E33" fill-opacity="0.6"/><circle cx="203.9" cy="434.4" r="1.5" fill="#C25E33" fill-opacity="0.6"/><circle cx="203.9" cy="434.4" r="1.5" fill="#C25E33" fill-opacity="0.6"/><circle cx="181.5" cy="462.5" r="3" fill="#C25E33" fill-opacity="0.6"/><circle cx="181.7" cy="462.4" r="1.5" fill="#C25E33" fill-opacity="0.6"/><circle cx="181.7" cy="462.4" r="1.5" fill="#C25E33" fill-opacity="0.6"/><circle cx="138.4" cy="475.2" r="3" fill="#2F6B4F" fill-opacity="0.6"/><circle cx="138.4" cy="475.3" r="1.5" fill="#2F6B4F" fill-opacity="0.6"/><circle cx="138.4" cy="475.3" r="1.5" fill="#2F6B4F" fill-opacity="0.6"/><circle cx="143.9" cy="481.7" r="3" fill="#2F6B4F" fill-opacity="0.6"/><circle cx="143.9" cy="481.8" r="1.5" fill="#2F6B4F" fill-opacity="0.6"/><circle cx="143.9" cy="481.8" r="1.5" fill="#2F6B4F" fill-opacity="0.6"/><circle cx="150.5" cy="490.0" r="3" fill="#2F6B4F" fill-opacity="0.6"/><circle cx="150.5" cy="490.0" r="1.5" fill="#2F6B4F" fill-opacity="0.6"/><circle cx="150.5" cy="490.0" r="1.5" fill="#2F6B4F" fill-opacity="0.6"/><circle cx="147.5" cy="483.8" r="3" fill="#2F6B4F" fill-opacity="0.6"/><circle cx="147.4" cy="483.8" r="1.5" fill="#2F6B4F" fill-opacity="0.6"/><circle cx="147.4" cy="483.8" r="1.5" fill="#2F6B4F" fill-opacity="0.6"/><circle cx="143.8" cy="481.2" r="3" fill="#2F6B4F" fill-opacity="0.6"/><circle cx="143.9" cy="481.1" r="1.5" fill="#2F6B4F" fill-opacity="0.6"/><circle cx="143.9" cy="481.1" r="1.5" fill="#2F6B4F" fill-opacity="0.6"/><circle cx="137.4" cy="476.3" r="3" fill="#2F6B4F" fill-opacity="0.6"/><circle cx="137.5" cy="476.2" r="1.5" fill="#2F6B4F" fill-opacity="0.6"/><circle cx="137.5" cy="476.2" r="1.5" fill="#2F6B4F" fill-opacity="0.6"/><circle cx="137.1" cy="478.1" r="3" fill="#2F6B4F" fill-opacity="0.6"/><circle cx="137.1" cy="478.1" r="1.5" fill="#2F6B4F" fill-opacity="0.6"/><circle cx="137.1" cy="478.1" r="1.5" fill="#2F6B4F" fill-opacity="0.6"/><circle cx="146.6" cy="491.8" r="3" fill="#2F6B4F" fill-opacity="0.6"/><circle cx="146.6" cy="491.7" r="1.5" fill="#2F6B4F" fill-opacity="0.6"/><circle cx="146.6" cy="491.7" r="1.5" fill="#2F6B4F" fill-opacity="0.6"/><circle cx="157.5" cy="506.8" r="3" fill="#2F6B4F" fill-opacity="0.6"/><circle cx="157.5" cy="506.8" r="1.5" fill="#2F6B4F" fill-opacity="0.6"/><circle cx="157.5" cy="506.8" r="1.5" fill="#2F6B4F" fill-opacity="0.6"/><circle cx="147.4" cy="473.3" r="3" fill="#2F6B4F" fill-opacity="0.6"/><circle cx="147.7" cy="473.5" r="1.5" fill="#2F6B4F" fill-opacity="0.6"/><circle cx="147.7" cy="473.5" r="1.5" fill="#2F6B4F" fill-opacity="0.6"/><circle cx="148.0" cy="475.1" r="3" fill="#2F6B4F" fill-opacity="0.6"/><circle cx="148.0" cy="475.1" r="1.5" fill="#2F6B4F" fill-opacity="0.6"/><circle cx="148.0" cy="475.1" r="1.5" fill="#2F6B4F" fill-opacity="0.6"/><circle cx="179.9" cy="517.4" r="3" fill="#2F6B4F" fill-opacity="0.6"/><circle cx="179.9" cy="517.3" r="1.5" fill="#2F6B4F" fill-opacity="0.6"/><circle cx="179.9" cy="517.3" r="1.5" fill="#2F6B4F" fill-opacity="0.6"/><circle cx="203.2" cy="550.6" r="3" fill="#2F6B4F" fill-opacity="0.6"/><circle cx="203.2" cy="550.6" r="1.5" fill="#2F6B4F" fill-opacity="0.6"/><circle cx="203.2" cy="550.6" r="1.5" fill="#2F6B4F" fill-opacity="0.6"/><circle cx="217.8" cy="569.8" r="3" fill="#2F6B4F" fill-opacity="0.6"/><circle cx="217.7" cy="569.7" r="1.5" fill="#2F6B4F" fill-opacity="0.6"/><circle cx="217.7" cy="569.7" r="1.5" fill="#2F6B4F" fill-opacity="0.6"/><circle cx="218.2" cy="579.5" r="3" fill="#2F6B4F" fill-opacity="0.6"/><circle cx="218.2" cy="579.6" r="1.5" fill="#2F6B4F" fill-opacity="0.6"/><circle cx="218.2" cy="579.6" r="1.5" fill="#2F6B4F" fill-opacity="0.6"/><circle cx="230.7" cy="592.1" r="3" fill="#2F6B4F" fill-opacity="0.6"/><circle cx="230.7" cy="592.2" r="1.5" fill="#2F6B4F" fill-opacity="0.6"/><circle cx="230.7" cy="592.2" r="1.5" fill="#2F6B4F" fill-opacity="0.6"/><circle cx="271.2" cy="572.9" r="3" fill="#2F6B4F" fill-opacity="0.6"/><circle cx="271.1" cy="572.9" r="1.5" fill="#2F6B4F" fill-opacity="0.6"/><circle cx="271.1" cy="572.9" r="1.5" fill="#2F6B4F" fill-opacity="0.6"/><circle cx="274.1" cy="628.9" r="3" fill="#2F6B4F" fill-opacity="0.6"/><circle cx="275.9" cy="627.5" r="1.5" fill="#2F6B4F" fill-opacity="0.6"/><circle cx="275.9" cy="627.5" r="1.5" fill="#2F6B4F" fill-opacity="0.6"/><circle cx="345.6" cy="661.6" r="3" fill="#2F6B4F" fill-opacity="0.6"/><circle cx="345.6" cy="661.6" r="1.5" fill="#2F6B4F" fill-opacity="0.6"/><circle cx="345.6" cy="661.6" r="1.5" fill="#2F6B4F" fill-opacity="0.6"/><circle cx="377.9" cy="724.3" r="3" fill="#2F6B4F" fill-opacity="0.6"/><circle cx="377.8" cy="724.1" r="1.5" fill="#2F6B4F" fill-opacity="0.6"/><circle cx="377.8" cy="724.1" r="1.5" fill="#2F6B4F" fill-opacity="0.6"/><circle cx="465.5" cy="754.5" r="3" fill="#2F6B4F" fill-opacity="0.6"/><circle cx="465.0" cy="755.0" r="1.5" fill="#2F6B4F" fill-opacity="0.6"/><circle cx="465.0" cy="755.0" r="1.5" fill="#2F6B4F" fill-opacity="0.6"/><circle cx="465.9" cy="754.1" r="3" fill="#2F6B4F" fill-opacity="0.6"/><circle cx="465.7" cy="754.1" r="1.5" fill="#2F6B4F" fill-opacity="0.6"/><circle cx="465.7" cy="754.1" r="1.5" fill="#2F6B4F" fill-opacity="0.6"/><circle cx="457.2" cy="789.9" r="3" fill="#2F6B4F" fill-opacity="0.6"/><circle cx="457.2" cy="789.9" r="1.5" fill="#2F6B4F" fill-opacity="0.6"/><circle cx="457.2" cy="789.9" r="1.5" fill="#2F6B4F" fill-opacity="0.6"/><circle cx="428.1" cy="828.3" r="3" fill="#2F6B4F" fill-opacity="0.6"/><circle cx="428.2" cy="828.7" r="1.5" fill="#2F6B4F" fill-opacity="0.6"/><circle cx="428.2" cy="828.7" r="1.5" fill="#2F6B4F" fill-opacity="0.6"/><circle cx="438.8" cy="838.9" r="3" fill="#2F6B4F" fill-opacity="0.6"/><circle cx="438.7" cy="838.9" r="1.5" fill="#2F6B4F" fill-opacity="0.6"/><circle cx="438.7" cy="838.9" r="1.5" fill="#2F6B4F" fill-opacity="0.6"/><circle cx="401.9" cy="811.8" r="3" fill="#2F6B4F" fill-opacity="0.6"/><circle cx="402.1" cy="811.8" r="1.5" fill="#2F6B4F" fill-opacity="0.6"/><circle cx="402.1" cy="811.8" r="1.5" fill="#2F6B4F" fill-opacity="0.6"/><circle cx="414.9" cy="795.5" r="3" fill="#2F6B4F" fill-opacity="0.6"/><circle cx="414.9" cy="795.5" r="1.5" fill="#2F6B4F" fill-opacity="0.6"/><circle cx="414.9" cy="795.5" r="1.5" fill="#2F6B4F" fill-opacity="0.6"/><circle cx="403.7" cy="804.9" r="3" fill="#2F6B4F" fill-opacity="0.6"/><circle cx="403.7" cy="804.9" r="1.5" fill="#2F6B4F" fill-opacity="0.6"/><circle cx="403.7" cy="804.9" r="1.5" fill="#2F6B4F" fill-opacity="0.6"/><circle cx="408.1" cy="811.8" r="3" fill="#2F6B4F" fill-opacity="0.6"/><circle cx="408.1" cy="811.8" r="1.5" fill="#2F6B4F" fill-opacity="0.6"/><circle cx="408.1" cy="811.8" r="1.5" fill="#2F6B4F" fill-opacity="0.6"/><circle cx="401.2" cy="816.7" r="3" fill="#2F6B4F" fill-opacity="0.6"/><circle cx="401.2" cy="816.7" r="1.5" fill="#2F6B4F" fill-opacity="0.6"/><circle cx="401.2" cy="816.7" r="1.5" fill="#2F6B4F" fill-opacity="0.6"/><circle cx="471.5" cy="808.3" r="3" fill="#2F6B4F" fill-opacity="0.6"/><circle cx="471.3" cy="808.2" r="1.5" fill="#2F6B4F" fill-opacity="0.6"/><circle cx="471.3" cy="808.2" r="1.5" fill="#2F6B4F" fill-opacity="0.6"/><circle cx="470.5" cy="807.9" r="3" fill="#C25E33" fill-opacity="0.6"/><circle cx="470.5" cy="807.9" r="1.5" fill="#C25E33" fill-opacity="0.6"/><circle cx="470.5" cy="807.9" r="1.5" fill="#C25E33" fill-opacity="0.6"/><circle cx="462.0" cy="813.5" r="3" fill="#C25E33" fill-opacity="0.6"/><circle cx="462.0" cy="813.5" r="1.5" fill="#C25E33" fill-opacity="0.6"/><circle cx="462.0" cy="813.5" r="1.5" fill="#C25E33" fill-opacity="0.6"/><circle cx="280.7" cy="621.0" r="3" fill="#C25E33" fill-opacity="0.6"/><circle cx="280.7" cy="621.0" r="1.5" fill="#C25E33" fill-opacity="0.6"/><circle cx="280.7" cy="621.0" r="1.5" fill="#C25E33" fill-opacity="0.6"/><circle cx="75.3" cy="446.9" r="3" fill="#C25E33" fill-opacity="0.6"/><circle cx="75.3" cy="447.0" r="1.5" fill="#C25E33" fill-opacity="0.6"/><circle cx="75.3" cy="447.0" r="1.5" fill="#C25E33" fill-opacity="0.6"/><circle cx="232.7" cy="330.6" r="3" fill="#C25E33" fill-opacity="0.6"/><circle cx="232.7" cy="330.7" r="1.5" fill="#C25E33" fill-opacity="0.6"/><circle cx="232.7" cy="330.7" r="1.5" fill="#C25E33" fill-opacity="0.6"/><circle cx="201.7" cy="297.3" r="3" fill="#C25E33" fill-opacity="0.6"/><circle cx="201.7" cy="297.4" r="1.5" fill="#C25E33" fill-opacity="0.6"/><circle cx="201.7" cy="297.4" r="1.5" fill="#C25E33" fill-opacity="0.6"/><circle cx="218.1" cy="317.8" r="3" fill="#C25E33" fill-opacity="0.6"/><circle cx="218.1" cy="317.8" r="1.5" fill="#C25E33" fill-opacity="0.6"/><circle cx="218.1" cy="317.8" r="1.5" fill="#C25E33" fill-opacity="0.6"/><circle cx="184.8" cy="277.0" r="3" fill="#C25E33" fill-opacity="0.6"/><circle cx="184.9" cy="277.1" r="1.5" fill="#C25E33" fill-opacity="0.6"/><circle cx="184.9" cy="277.1" r="1.5" fill="#C25E33" fill-opacity="0.6"/><circle cx="184.9" cy="277.0" r="3" fill="#C25E33" fill-opacity="0.6"/><circle cx="184.9" cy="277.0" r="1.5" fill="#C25E33" fill-opacity="0.6"/><circle cx="184.9" cy="277.0" r="1.5" fill="#C25E33" fill-opacity="0.6"/><circle cx="161.1" cy="294.8" r="3" fill="#C25E33" fill-opacity="0.6"/><circle cx="161.2" cy="294.7" r="1.5" fill="#C25E33" fill-opacity="0.6"/><circle cx="161.2" cy="294.7" r="1.5" fill="#C25E33" fill-opacity="0.6"/><circle cx="68.3" cy="365.8" r="3" fill="#C25E33" fill-opacity="0.6"/><circle cx="69.0" cy="365.4" r="1.5" fill="#C25E33" fill-opacity="0.6"/><circle cx="69.0" cy="365.4" r="1.5" fill="#C25E33" fill-opacity="0.6"/><circle cx="0.1" cy="479.3" r="3" fill="#C25E33" fill-opacity="0.6"/><circle cx="0.2" cy="479.3" r="1.5" fill="#C25E33" fill-opacity="0.6"/><circle cx="0.2" cy="479.3" r="1.5" fill="#C25E33" fill-opacity="0.6"/><circle cx="0.0" cy="479.7" r="3" fill="#C25E33" fill-opacity="0.6"/><circle cx="0.0" cy="479.7" r="1.5" fill="#C25E33" fill-opacity="0.6"/><circle cx="0.0" cy="479.7" r="1.5" fill="#C25E33" fill-opacity="0.6"/><circle cx="0.1" cy="479.6" r="3" fill="#C25E33" fill-opacity="0.6"/><circle cx="0.1" cy="479.6" r="1.5" fill="#C25E33" fill-opacity="0.6"/><circle cx="0.1" cy="479.6" r="1.5" fill="#C25E33" fill-opacity="0.6"/><circle cx="0.1" cy="479.7" r="3" fill="#C25E33" fill-opacity="0.6"/><circle cx="0.1" cy="479.7" r="1.5" fill="#C25E33" fill-opacity="0.6"/><circle cx="0.1" cy="479.7" r="1.5" fill="#C25E33" fill-opacity="0.6"/><circle cx="0.1" cy="479.5" r="3" fill="#C25E33" fill-opacity="0.6"/><circle cx="0.1" cy="479.5" r="1.5" fill="#C25E33" fill-opacity="0.6"/><circle cx="0.1" cy="479.5" r="1.5" fill="#C25E33" fill-opacity="0.6"/><circle cx="0.0" cy="479.5" r="3" fill="#C25E33" fill-opacity="0.6"/><circle cx="0.0" cy="479.5" r="1.5" fill="#C25E33" fill-opacity="0.6"/><circle cx="0.0" cy="479.5" r="1.5" fill="#C25E33" fill-opacity="0.6"/><circle cx="0.0" cy="479.5" r="3" fill="#C25E33" fill-opacity="0.6"/><circle cx="0.0" cy="479.5" r="1.5" fill="#C25E33" fill-opacity="0.6"/><circle cx="0.0" cy="479.5" r="1.5" fill="#C25E33" fill-opacity="0.6"/><circle cx="0.0" cy="479.5" r="3" fill="#C25E33" fill-opacity="0.6"/><circle cx="0.1" cy="479.5" r="1.5" fill="#C25E33" fill-opacity="0.6"/><circle cx="0.1" cy="479.5" r="1.5" fill="#C25E33" fill-opacity="0.6"/><circle cx="75.5" cy="313.4" r="3" fill="#C25E33" fill-opacity="0.6"/><circle cx="75.5" cy="313.4" r="1.5" fill="#C25E33" fill-opacity="0.6"/><circle cx="75.5" cy="313.4" r="1.5" fill="#C25E33" fill-opacity="0.6"/><circle cx="74.4" cy="314.5" r="3" fill="#C25E33" fill-opacity="0.6"/><circle cx="74.4" cy="314.5" r="1.5" fill="#C25E33" fill-opacity="0.6"/><circle cx="74.4" cy="314.5" r="1.5" fill="#C25E33" fill-opacity="0.6"/><circle cx="74.6" cy="314.8" r="3" fill="#C25E33" fill-opacity="0.6"/><circle cx="74.6" cy="314.7" r="1.5" fill="#C25E33" fill-opacity="0.6"/><circle cx="74.6" cy="314.7" r="1.5" fill="#C25E33" fill-opacity="0.6"/><circle cx="74.7" cy="314.8" r="3" fill="#C25E33" fill-opacity="0.6"/><circle cx="74.7" cy="314.8" r="1.5" fill="#C25E33" fill-opacity="0.6"/><circle cx="74.7" cy="314.8" r="1.5" fill="#C25E33" fill-opacity="0.6"/><circle cx="74.5" cy="314.8" r="3" fill="#C25E33" fill-opacity="0.6"/><circle cx="74.5" cy="314.8" r="1.5" fill="#C25E33" fill-opacity="0.6"/><circle cx="74.5" cy="314.8" r="1.5" fill="#C25E33" fill-opacity="0.6"/><circle cx="74.5" cy="314.8" r="3" fill="#C25E33" fill-opacity="0.6"/><circle cx="74.5" cy="314.8" r="1.5" fill="#C25E33" fill-opacity="0.6"/><circle cx="74.5" cy="314.8" r="1.5" fill="#C25E33" fill-opacity="0.6"/><circle cx="74.5" cy="314.6" r="3" fill="#C25E33" fill-opacity="0.6"/><circle cx="74.6" cy="314.7" r="1.5" fill="#C25E33" fill-opacity="0.6"/><circle cx="74.6" cy="314.7" r="1.5" fill="#C25E33" fill-opacity="0.6"/><circle cx="74.6" cy="314.6" r="3" fill="#C25E33" fill-opacity="0.6"/><circle cx="74.6" cy="314.6" r="1.5" fill="#C25E33" fill-opacity="0.6"/><circle cx="74.6" cy="314.6" r="1.5" fill="#C25E33" fill-opacity="0.6"/><circle cx="74.6" cy="314.5" r="3" fill="#C25E33" fill-opacity="0.6"/><circle cx="74.5" cy="314.5" r="1.5" fill="#C25E33" fill-opacity="0.6"/><circle cx="74.5" cy="314.5" r="1.5" fill="#C25E33" fill-opacity="0.6"/><circle cx="74.6" cy="314.8" r="3" fill="#C25E33" fill-opacity="0.6"/><circle cx="74.6" cy="314.8" r="1.5" fill="#C25E33" fill-opacity="0.6"/><circle cx="74.6" cy="314.8" r="1.5" fill="#C25E33" fill-opacity="0.6"/><circle cx="74.6" cy="314.8" r="3" fill="#C25E33" fill-opacity="0.6"/><circle cx="74.6" cy="314.8" r="1.5" fill="#C25E33" fill-opacity="0.6"/><circle cx="74.6" cy="314.8" r="1.5" fill="#C25E33" fill-opacity="0.6"/><circle cx="74.6" cy="314.8" r="3" fill="#C25E33" fill-opacity="0.6"/><circle cx="74.6" cy="314.9" r="1.5" fill="#C25E33" fill-opacity="0.6"/><circle cx="74.6" cy="314.9" r="1.5" fill="#C25E33" fill-opacity="0.6"/><circle cx="74.5" cy="314.6" r="3" fill="#C25E33" fill-opacity="0.6"/><circle cx="74.5" cy="314.7" r="1.5" fill="#C25E33" fill-opacity="0.6"/><circle cx="74.5" cy="314.7" r="1.5" fill="#C25E33" fill-opacity="0.6"/><circle cx="74.7" cy="314.6" r="3" fill="#C25E33" fill-opacity="0.6"/><circle cx="74.7" cy="314.5" r="1.5" fill="#C25E33" fill-opacity="0.6"/><circle cx="74.7" cy="314.5" r="1.5" fill="#C25E33" fill-opacity="0.6"/><circle cx="74.7" cy="314.6" r="3" fill="#C25E33" fill-opacity="0.6"/><circle cx="74.7" cy="314.5" r="1.5" fill="#C25E33" fill-opacity="0.6"/><circle cx="74.7" cy="314.5" r="1.5" fill="#C25E33" fill-opacity="0.6"/><circle cx="74.7" cy="314.6" r="3" fill="#C25E33" fill-opacity="0.6"/><circle cx="74.7" cy="314.6" r="1.5" fill="#C25E33" fill-opacity="0.6"/><circle cx="74.7" cy="314.6" r="1.5" fill="#C25E33" fill-opacity="0.6"/><circle cx="74.8" cy="314.4" r="3" fill="#C25E33" fill-opacity="0.6"/><circle cx="74.8" cy="314.5" r="1.5" fill="#C25E33" fill-opacity="0.6"/><circle cx="74.8" cy="314.5" r="1.5" fill="#C25E33" fill-opacity="0.6"/><circle cx="74.8" cy="314.6" r="3" fill="#C25E33" fill-opacity="0.6"/><circle cx="74.8" cy="314.6" r="1.5" fill="#C25E33" fill-opacity="0.6"/><circle cx="74.8" cy="314.6" r="1.5" fill="#C25E33" fill-opacity="0.6"/><circle cx="74.8" cy="314.6" r="3" fill="#C25E33" fill-opacity="0.6"/><circle cx="74.8" cy="314.6" r="1.5" fill="#C25E33" fill-opacity="0.6"/><circle cx="74.8" cy="314.6" r="1.5" fill="#C25E33" fill-opacity="0.6"/><circle cx="74.7" cy="314.3" r="3" fill="#C25E33" fill-opacity="0.6"/><circle cx="74.7" cy="314.4" r="1.5" fill="#C25E33" fill-opacity="0.6"/><circle cx="74.7" cy="314.4" r="1.5" fill="#C25E33" fill-opacity="0.6"/><circle cx="130.4" cy="420.4" r="3" fill="#C25E33" fill-opacity="0.6"/><circle cx="130.5" cy="420.4" r="1.5" fill="#C25E33" fill-opacity="0.6"/><circle cx="130.5" cy="420.4" r="1.5" fill="#C25E33" fill-opacity="0.6"/><circle cx="190.0" cy="372.1" r="3" fill="#2F6B4F" fill-opacity="0.6"/><circle cx="188.7" cy="373.1" r="1.5" fill="#2F6B4F" fill-opacity="0.6"/><circle cx="188.7" cy="373.1" r="1.5" fill="#2F6B4F" fill-opacity="0.6"/><circle cx="176.1" cy="356.8" r="3" fill="#2F6B4F" fill-opacity="0.6"/><circle cx="176.0" cy="356.7" r="1.5" fill="#2F6B4F" fill-opacity="0.6"/><circle cx="176.0" cy="356.7" r="1.5" fill="#2F6B4F" fill-opacity="0.6"/><circle cx="478.5" cy="57.9" r="3" fill="#2F6B4F" fill-opacity="0.6"/><circle cx="478.5" cy="57.9" r="1.5" fill="#2F6B4F" fill-opacity="0.6"/><circle cx="478.5" cy="57.9" r="1.5" fill="#2F6B4F" fill-opacity="0.6"/><circle cx="531.1" cy="118.3" r="3" fill="#2F6B4F" fill-opacity="0.6"/><circle cx="530.6" cy="117.6" r="1.5" fill="#2F6B4F" fill-opacity="0.6"/><circle cx="530.6" cy="117.6" r="1.5" fill="#2F6B4F" fill-opacity="0.6"/><circle cx="569.2" cy="168.4" r="3" fill="#2F6B4F" fill-opacity="0.6"/><circle cx="569.2" cy="168.3" r="1.5" fill="#2F6B4F" fill-opacity="0.6"/><circle cx="569.2" cy="168.3" r="1.5" fill="#2F6B4F" fill-opacity="0.6"/><circle cx="604.2" cy="140.8" r="3" fill="#2F6B4F" fill-opacity="0.6"/><circle cx="604.2" cy="140.8" r="1.5" fill="#2F6B4F" fill-opacity="0.6"/><circle cx="604.2" cy="140.8" r="1.5" fill="#2F6B4F" fill-opacity="0.6"/><circle cx="607.5" cy="138.7" r="3" fill="#2F6B4F" fill-opacity="0.6"/><circle cx="607.4" cy="138.6" r="1.5" fill="#2F6B4F" fill-opacity="0.6"/><circle cx="607.4" cy="138.6" r="1.5" fill="#2F6B4F" fill-opacity="0.6"/><circle cx="640.6" cy="112.8" r="3" fill="#2F6B4F" fill-opacity="0.6"/><circle cx="640.6" cy="112.8" r="1.5" fill="#2F6B4F" fill-opacity="0.6"/><circle cx="640.6" cy="112.8" r="1.5" fill="#2F6B4F" fill-opacity="0.6"/><circle cx="570.7" cy="25.8" r="3" fill="#2F6B4F" fill-opacity="0.6"/><circle cx="570.7" cy="25.9" r="1.5" fill="#2F6B4F" fill-opacity="0.6"/><circle cx="570.7" cy="25.9" r="1.5" fill="#2F6B4F" fill-opacity="0.6"/><circle cx="547.7" cy="0.0" r="3" fill="#2F6B4F" fill-opacity="0.6"/><circle cx="547.7" cy="0.0" r="1.5" fill="#2F6B4F" fill-opacity="0.6"/><circle cx="547.7" cy="0.0" r="1.5" fill="#2F6B4F" fill-opacity="0.6"/><circle cx="620.1" cy="91.8" r="3" fill="#2F6B4F" fill-opacity="0.6"/><circle cx="620.0" cy="91.9" r="1.5" fill="#2F6B4F" fill-opacity="0.6"/><circle cx="620.0" cy="91.9" r="1.5" fill="#2F6B4F" fill-opacity="0.6"/><circle cx="637.7" cy="114.7" r="3" fill="#2F6B4F" fill-opacity="0.6"/><circle cx="637.8" cy="114.7" r="1.5" fill="#2F6B4F" fill-opacity="0.6"/><circle cx="637.8" cy="114.7" r="1.5" fill="#2F6B4F" fill-opacity="0.6"/><circle cx="605.2" cy="141.5" r="3" fill="#2F6B4F" fill-opacity="0.6"/><circle cx="605.2" cy="141.4" r="1.5" fill="#2F6B4F" fill-opacity="0.6"/><circle cx="605.2" cy="141.4" r="1.5" fill="#2F6B4F" fill-opacity="0.6"/><circle cx="552.5" cy="162.0" r="3" fill="#2F6B4F" fill-opacity="0.6"/><circle cx="552.5" cy="162.1" r="1.5" fill="#2F6B4F" fill-opacity="0.6"/><circle cx="552.5" cy="162.1" r="1.5" fill="#2F6B4F" fill-opacity="0.6"/><circle cx="530.5" cy="164.1" r="3" fill="#2F6B4F" fill-opacity="0.6"/><circle cx="530.6" cy="164.1" r="1.5" fill="#2F6B4F" fill-opacity="0.6"/><circle cx="530.6" cy="164.1" r="1.5" fill="#2F6B4F" fill-opacity="0.6"/><circle cx="528.7" cy="165.9" r="3" fill="#2F6B4F" fill-opacity="0.6"/><circle cx="528.7" cy="166.0" r="1.5" fill="#2F6B4F" fill-opacity="0.6"/><circle cx="528.7" cy="166.0" r="1.5" fill="#2F6B4F" fill-opacity="0.6"/><circle cx="514.3" cy="176.2" r="3" fill="#2F6B4F" fill-opacity="0.6"/><circle cx="514.3" cy="176.2" r="1.5" fill="#2F6B4F" fill-opacity="0.6"/><circle cx="514.3" cy="176.2" r="1.5" fill="#2F6B4F" fill-opacity="0.6"/><circle cx="505.6" cy="165.2" r="3" fill="#2F6B4F" fill-opacity="0.6"/><circle cx="505.7" cy="165.3" r="1.5" fill="#2F6B4F" fill-opacity="0.6"/><circle cx="505.7" cy="165.3" r="1.5" fill="#2F6B4F" fill-opacity="0.6"/><circle cx="496.8" cy="154.6" r="3" fill="#2F6B4F" fill-opacity="0.6"/><circle cx="496.8" cy="154.6" r="1.5" fill="#2F6B4F" fill-opacity="0.6"/><circle cx="496.8" cy="154.6" r="1.5" fill="#2F6B4F" fill-opacity="0.6"/><circle cx="481.2" cy="135.6" r="3" fill="#2F6B4F" fill-opacity="0.6"/><circle cx="481.2" cy="135.6" r="1.5" fill="#2F6B4F" fill-opacity="0.6"/><circle cx="481.2" cy="135.6" r="1.5" fill="#2F6B4F" fill-opacity="0.6"/><circle cx="499.6" cy="122.7" r="3" fill="#2F6B4F" fill-opacity="0.6"/><circle cx="499.6" cy="122.7" r="1.5" fill="#2F6B4F" fill-opacity="0.6"/><circle cx="499.6" cy="122.7" r="1.5" fill="#2F6B4F" fill-opacity="0.6"/><circle cx="524.8" cy="63.9" r="3" fill="#2F6B4F" fill-opacity="0.6"/><circle cx="524.8" cy="64.0" r="1.5" fill="#2F6B4F" fill-opacity="0.6"/><circle cx="524.8" cy="64.0" r="1.5" fill="#2F6B4F" fill-opacity="0.6"/><circle cx="513.4" cy="49.9" r="3" fill="#2F6B4F" fill-opacity="0.6"/><circle cx="513.4" cy="49.9" r="1.5" fill="#2F6B4F" fill-opacity="0.6"/><circle cx="513.4" cy="49.9" r="1.5" fill="#2F6B4F" fill-opacity="0.6"/><circle cx="489.1" cy="25.8" r="3" fill="#2F6B4F" fill-opacity="0.6"/><circle cx="489.2" cy="25.9" r="1.5" fill="#2F6B4F" fill-opacity="0.6"/><circle cx="489.2" cy="25.9" r="1.5" fill="#2F6B4F" fill-opacity="0.6"/><circle cx="472.8" cy="37.5" r="3" fill="#2F6B4F" fill-opacity="0.6"/><circle cx="472.8" cy="37.5" r="1.5" fill="#2F6B4F" fill-opacity="0.6"/><circle cx="472.8" cy="37.5" r="1.5" fill="#2F6B4F" fill-opacity="0.6"/><circle cx="463.3" cy="66.4" r="3" fill="#2F6B4F" fill-opacity="0.6"/><circle cx="463.2" cy="66.2" r="1.5" fill="#2F6B4F" fill-opacity="0.6"/><circle cx="463.2" cy="66.2" r="1.5" fill="#2F6B4F" fill-opacity="0.6"/><circle cx="473.5" cy="79.2" r="3" fill="#2F6B4F" fill-opacity="0.6"/><circle cx="473.4" cy="79.2" r="1.5" fill="#2F6B4F" fill-opacity="0.6"/><circle cx="473.4" cy="79.2" r="1.5" fill="#2F6B4F" fill-opacity="0.6"/><circle cx="526.9" cy="39.9" r="3" fill="#2F6B4F" fill-opacity="0.6"/><circle cx="526.9" cy="40.0" r="1.5" fill="#2F6B4F" fill-opacity="0.6"/><circle cx="526.9" cy="40.0" r="1.5" fill="#2F6B4F" fill-opacity="0.6"/><circle cx="540.0" cy="24.7" r="3" fill="#C25E33" fill-opacity="0.6"/><circle cx="540.0" cy="24.7" r="1.5" fill="#C25E33" fill-opacity="0.6"/><circle cx="540.0" cy="24.7" r="1.5" fill="#C25E33" fill-opacity="0.6"/><circle cx="539.4" cy="25.0" r="3" fill="#C25E33" fill-opacity="0.6"/><circle cx="539.4" cy="25.0" r="1.5" fill="#C25E33" fill-opacity="0.6"/><circle cx="539.4" cy="25.0" r="1.5" fill="#C25E33" fill-opacity="0.6"/><circle cx="658.6" cy="75.8" r="3" fill="#C25E33" fill-opacity="0.6"/><circle cx="658.5" cy="75.9" r="1.5" fill="#C25E33" fill-opacity="0.6"/><circle cx="658.5" cy="75.9" r="1.5" fill="#C25E33" fill-opacity="0.6"/><circle cx="658.7" cy="75.2" r="3" fill="#C25E33" fill-opacity="0.6"/><circle cx="658.7" cy="75.2" r="1.5" fill="#C25E33" fill-opacity="0.6"/><circle cx="658.7" cy="75.2" r="1.5" fill="#C25E33" fill-opacity="0.6"/><circle cx="658.4" cy="75.4" r="3" fill="#C25E33" fill-opacity="0.6"/><circle cx="658.4" cy="75.4" r="1.5" fill="#C25E33" fill-opacity="0.6"/><circle cx="658.4" cy="75.4" r="1.5" fill="#C25E33" fill-opacity="0.6"/><circle cx="658.2" cy="75.5" r="3" fill="#C25E33" fill-opacity="0.6"/><circle cx="658.3" cy="75.5" r="1.5" fill="#C25E33" fill-opacity="0.6"/><circle cx="658.3" cy="75.5" r="1.5" fill="#C25E33" fill-opacity="0.6"/><circle cx="658.1" cy="75.7" r="3" fill="#C25E33" fill-opacity="0.6"/><circle cx="658.2" cy="75.7" r="1.5" fill="#C25E33" fill-opacity="0.6"/><circle cx="658.2" cy="75.7" r="1.5" fill="#C25E33" fill-opacity="0.6"/><circle cx="658.1" cy="75.8" r="3" fill="#C25E33" fill-opacity="0.6"/><circle cx="658.1" cy="75.8" r="1.5" fill="#C25E33" fill-opacity="0.6"/><circle cx="658.1" cy="75.8" r="1.5" fill="#C25E33" fill-opacity="0.6"/><circle cx="778.4" cy="230.0" r="3" fill="#C25E33" fill-opacity="0.6"/><circle cx="778.4" cy="229.9" r="1.5" fill="#C25E33" fill-opacity="0.6"/><circle cx="778.4" cy="229.9" r="1.5" fill="#C25E33" fill-opacity="0.6"/><circle cx="779.0" cy="230.9" r="3" fill="#C25E33" fill-opacity="0.6"/><circle cx="778.8" cy="230.7" r="1.5" fill="#C25E33" fill-opacity="0.6"/><circle cx="778.8" cy="230.7" r="1.5" fill="#C25E33" fill-opacity="0.6"/><circle cx="798.4" cy="257.0" r="3" fill="#C25E33" fill-opacity="0.6"/><circle cx="798.4" cy="256.9" r="1.5" fill="#C25E33" fill-opacity="0.6"/><circle cx="798.4" cy="256.9" r="1.5" fill="#C25E33" fill-opacity="0.6"/><circle cx="807.8" cy="350.3" r="3" fill="#C25E33" fill-opacity="0.6"/><circle cx="807.9" cy="350.3" r="1.5" fill="#C25E33" fill-opacity="0.6"/><circle cx="807.9" cy="350.3" r="1.5" fill="#C25E33" fill-opacity="0.6"/><circle cx="807.7" cy="349.8" r="3" fill="#C25E33" fill-opacity="0.6"/><circle cx="807.6" cy="349.8" r="1.5" fill="#C25E33" fill-opacity="0.6"/><circle cx="807.6" cy="349.8" r="1.5" fill="#C25E33" fill-opacity="0.6"/><circle cx="807.6" cy="349.8" r="3" fill="#C25E33" fill-opacity="0.6"/><circle cx="807.6" cy="349.8" r="1.5" fill="#C25E33" fill-opacity="0.6"/><circle cx="807.6" cy="349.8" r="1.5" fill="#C25E33" fill-opacity="0.6"/><circle cx="807.4" cy="349.6" r="3" fill="#C25E33" fill-opacity="0.6"/><circle cx="807.4" cy="349.6" r="1.5" fill="#C25E33" fill-opacity="0.6"/><circle cx="807.4" cy="349.6" r="1.5" fill="#C25E33" fill-opacity="0.6"/><circle cx="807.1" cy="349.5" r="3" fill="#C25E33" fill-opacity="0.6"/><circle cx="807.2" cy="349.5" r="1.5" fill="#C25E33" fill-opacity="0.6"/><circle cx="807.2" cy="349.5" r="1.5" fill="#C25E33" fill-opacity="0.6"/><circle cx="807.0" cy="349.3" r="3" fill="#C25E33" fill-opacity="0.6"/><circle cx="807.0" cy="349.3" r="1.5" fill="#C25E33" fill-opacity="0.6"/><circle cx="807.0" cy="349.3" r="1.5" fill="#C25E33" fill-opacity="0.6"/><circle cx="807.0" cy="349.3" r="3" fill="#C25E33" fill-opacity="0.6"/><circle cx="807.0" cy="349.3" r="1.5" fill="#C25E33" fill-opacity="0.6"/><circle cx="807.0" cy="349.3" r="1.5" fill="#C25E33" fill-opacity="0.6"/><circle cx="832.5" cy="398.1" r="3" fill="#C25E33" fill-opacity="0.6"/><circle cx="832.6" cy="398.1" r="1.5" fill="#C25E33" fill-opacity="0.6"/><circle cx="832.6" cy="398.1" r="1.5" fill="#C25E33" fill-opacity="0.6"/><circle cx="832.2" cy="397.8" r="3" fill="#C25E33" fill-opacity="0.6"/><circle cx="832.2" cy="397.8" r="1.5" fill="#C25E33" fill-opacity="0.6"/><circle cx="832.2" cy="397.8" r="1.5" fill="#C25E33" fill-opacity="0.6"/><circle cx="838.4" cy="406.8" r="3" fill="#C25E33" fill-opacity="0.6"/><circle cx="838.3" cy="406.9" r="1.5" fill="#C25E33" fill-opacity="0.6"/><circle cx="838.3" cy="406.9" r="1.5" fill="#C25E33" fill-opacity="0.6"/><circle cx="855.4" cy="365.0" r="3" fill="#C25E33" fill-opacity="0.6"/><circle cx="855.1" cy="365.4" r="1.5" fill="#C25E33" fill-opacity="0.6"/><circle cx="855.1" cy="365.4" r="1.5" fill="#C25E33" fill-opacity="0.6"/><circle cx="827.5" cy="334.9" r="3" fill="#C25E33" fill-opacity="0.6"/><circle cx="827.6" cy="334.9" r="1.5" fill="#C25E33" fill-opacity="0.6"/><circle cx="827.6" cy="334.9" r="1.5" fill="#C25E33" fill-opacity="0.6"/><circle cx="827.6" cy="335.1" r="3" fill="#C25E33" fill-opacity="0.6"/><circle cx="827.6" cy="335.1" r="1.5" fill="#C25E33" fill-opacity="0.6"/><circle cx="827.6" cy="335.1" r="1.5" fill="#C25E33" fill-opacity="0.6"/><circle cx="828.1" cy="335.5" r="3" fill="#C25E33" fill-opacity="0.6"/><circle cx="828.0" cy="335.4" r="1.5" fill="#C25E33" fill-opacity="0.6"/><circle cx="828.0" cy="335.4" r="1.5" fill="#C25E33" fill-opacity="0.6"/><circle cx="828.3" cy="335.3" r="3" fill="#2F6B4F" fill-opacity="0.6"/><circle cx="828.2" cy="335.3" r="1.5" fill="#2F6B4F" fill-opacity="0.6"/><circle cx="828.2" cy="335.3" r="1.5" fill="#2F6B4F" fill-opacity="0.6"/><circle cx="866.5" cy="365.3" r="3" fill="#2F6B4F" fill-opacity="0.6"/><circle cx="863.8" cy="361.8" r="1.5" fill="#2F6B4F" fill-opacity="0.6"/><circle cx="863.8" cy="361.8" r="1.5" fill="#2F6B4F" fill-opacity="0.6"/><circle cx="886.4" cy="391.7" r="3" fill="#2F6B4F" fill-opacity="0.6"/><circle cx="883.8" cy="388.4" r="1.5" fill="#2F6B4F" fill-opacity="0.6"/><circle cx="883.8" cy="388.4" r="1.5" fill="#2F6B4F" fill-opacity="0.6"/><circle cx="904.7" cy="416.1" r="3" fill="#2F6B4F" fill-opacity="0.6"/><circle cx="902.0" cy="412.5" r="1.5" fill="#2F6B4F" fill-opacity="0.6"/><circle cx="902.0" cy="412.5" r="1.5" fill="#2F6B4F" fill-opacity="0.6"/><circle cx="934.3" cy="454.6" r="3" fill="#2F6B4F" fill-opacity="0.6"/><circle cx="932.0" cy="451.6" r="1.5" fill="#2F6B4F" fill-opacity="0.6"/><circle cx="932.0" cy="451.6" r="1.5" fill="#2F6B4F" fill-opacity="0.6"/><circle cx="951.4" cy="477.3" r="3" fill="#2F6B4F" fill-opacity="0.6"/><circle cx="950.1" cy="475.7" r="1.5" fill="#2F6B4F" fill-opacity="0.6"/><circle cx="950.1" cy="475.7" r="1.5" fill="#2F6B4F" fill-opacity="0.6"/><circle cx="971.2" cy="503.2" r="3" fill="#2F6B4F" fill-opacity="0.6"/><circle cx="971.0" cy="503.0" r="1.5" fill="#2F6B4F" fill-opacity="0.6"/><circle cx="971.0" cy="503.0" r="1.5" fill="#2F6B4F" fill-opacity="0.6"/><circle cx="1000.0" cy="474.7" r="3" fill="#2F6B4F" fill-opacity="0.6"/><circle cx="999.7" cy="475.2" r="1.5" fill="#2F6B4F" fill-opacity="0.6"/><circle cx="999.7" cy="475.2" r="1.5" fill="#2F6B4F" fill-opacity="0.6"/><circle cx="979.9" cy="460.6" r="3" fill="#2F6B4F" fill-opacity="0.6"/><circle cx="980.1" cy="460.4" r="1.5" fill="#2F6B4F" fill-opacity="0.6"/><circle cx="980.1" cy="460.4" r="1.5" fill="#2F6B4F" fill-opacity="0.6"/><circle cx="920.7" cy="428.3" r="3" fill="#2F6B4F" fill-opacity="0.6"/><circle cx="920.8" cy="428.2" r="1.5" fill="#2F6B4F" fill-opacity="0.6"/><circle cx="920.8" cy="428.2" r="1.5" fill="#2F6B4F" fill-opacity="0.6"/><circle cx="920.8" cy="428.6" r="3" fill="#C25E33" fill-opacity="0.6"/><circle cx="920.8" cy="428.5" r="1.5" fill="#C25E33" fill-opacity="0.6"/><circle cx="920.8" cy="428.5" r="1.5" fill="#C25E33" fill-opacity="0.6"/><circle cx="910.7" cy="435.5" r="3" fill="#C25E33" fill-opacity="0.6"/><circle cx="910.7" cy="435.5" r="1.5" fill="#C25E33" fill-opacity="0.6"/><circle cx="910.7" cy="435.5" r="1.5" fill="#C25E33" fill-opacity="0.6"/><circle cx="910.1" cy="435.1" r="3" fill="#C25E33" fill-opacity="0.6"/><circle cx="910.1" cy="435.1" r="1.5" fill="#C25E33" fill-opacity="0.6"/><circle cx="910.1" cy="435.1" r="1.5" fill="#C25E33" fill-opacity="0.6"/><circle cx="910.2" cy="435.1" r="3" fill="#C25E33" fill-opacity="0.6"/><circle cx="910.2" cy="435.1" r="1.5" fill="#C25E33" fill-opacity="0.6"/><circle cx="910.2" cy="435.1" r="1.5" fill="#C25E33" fill-opacity="0.6"/><circle cx="910.2" cy="435.1" r="3" fill="#2F6B4F" fill-opacity="0.6"/><circle cx="910.2" cy="435.1" r="1.5" fill="#2F6B4F" fill-opacity="0.6"/><circle cx="910.2" cy="435.1" r="1.5" fill="#2F6B4F" fill-opacity="0.6"/><circle cx="910.2" cy="435.1" r="3" fill="#2F6B4F" fill-opacity="0.6"/><circle cx="910.2" cy="435.1" r="1.5" fill="#2F6B4F" fill-opacity="0.6"/><circle cx="910.2" cy="435.1" r="1.5" fill="#2F6B4F" fill-opacity="0.6"/><circle cx="910.3" cy="435.1" r="3" fill="#2F6B4F" fill-opacity="0.6"/><circle cx="910.3" cy="435.1" r="1.5" fill="#2F6B4F" fill-opacity="0.6"/><circle cx="910.3" cy="435.1" r="1.5" fill="#2F6B4F" fill-opacity="0.6"/><circle cx="910.3" cy="435.1" r="3" fill="#2F6B4F" fill-opacity="0.6"/><circle cx="910.3" cy="435.1" r="1.5" fill="#2F6B4F" fill-opacity="0.6"/><circle cx="910.3" cy="435.1" r="1.5" fill="#2F6B4F" fill-opacity="0.6"/><circle cx="910.3" cy="435.1" r="3" fill="#2F6B4F" fill-opacity="0.6"/><circle cx="910.3" cy="435.1" r="1.5" fill="#2F6B4F" fill-opacity="0.6"/><circle cx="910.3" cy="435.1" r="1.5" fill="#2F6B4F" fill-opacity="0.6"/><circle cx="581.3" cy="81.9" r="3" fill="#2F6B4F" fill-opacity="0.6"/><circle cx="582.7" cy="83.3" r="1.5" fill="#2F6B4F" fill-opacity="0.6"/><circle cx="582.7" cy="83.3" r="1.5" fill="#2F6B4F" fill-opacity="0.6"/><circle cx="579.7" cy="79.9" r="3" fill="#2F6B4F" fill-opacity="0.6"/><circle cx="579.7" cy="79.9" r="1.5" fill="#2F6B4F" fill-opacity="0.6"/><circle cx="579.7" cy="79.9" r="1.5" fill="#2F6B4F" fill-opacity="0.6"/><circle cx="577.6" cy="80.2" r="3" fill="#C25E33" fill-opacity="0.6"/><circle cx="577.6" cy="80.2" r="1.5" fill="#C25E33" fill-opacity="0.6"/><circle cx="577.6" cy="80.2" r="1.5" fill="#C25E33" fill-opacity="0.6"/><circle cx="577.7" cy="80.2" r="3" fill="#C25E33" fill-opacity="0.6"/><circle cx="577.6" cy="80.2" r="1.5" fill="#C25E33" fill-opacity="0.6"/><circle cx="577.6" cy="80.2" r="1.5" fill="#C25E33" fill-opacity="0.6"/><circle cx="577.7" cy="80.1" r="3" fill="#C25E33" fill-opacity="0.6"/><circle cx="577.7" cy="80.2" r="1.5" fill="#C25E33" fill-opacity="0.6"/><circle cx="577.7" cy="80.2" r="1.5" fill="#C25E33" fill-opacity="0.6"/><circle cx="578.1" cy="80.0" r="3" fill="#C25E33" fill-opacity="0.6"/><circle cx="578.0" cy="80.1" r="1.5" fill="#C25E33" fill-opacity="0.6"/><circle cx="578.0" cy="80.1" r="1.5" fill="#C25E33" fill-opacity="0.6"/><circle cx="578.5" cy="79.6" r="3" fill="#C25E33" fill-opacity="0.6"/><circle cx="578.5" cy="79.5" r="1.5" fill="#C25E33" fill-opacity="0.6"/><circle cx="578.5" cy="79.5" r="1.5" fill="#C25E33" fill-opacity="0.6"/><circle cx="578.4" cy="79.0" r="3" fill="#C25E33" fill-opacity="0.6"/><circle cx="578.4" cy="79.0" r="1.5" fill="#C25E33" fill-opacity="0.6"/><circle cx="578.4" cy="79.0" r="1.5" fill="#C25E33" fill-opacity="0.6"/><circle cx="577.0" cy="79.3" r="3" fill="#C25E33" fill-opacity="0.6"/><circle cx="577.0" cy="79.3" r="1.5" fill="#C25E33" fill-opacity="0.6"/><circle cx="577.0" cy="79.3" r="1.5" fill="#C25E33" fill-opacity="0.6"/><circle cx="832.2" cy="397.8" r="8" fill="none" stroke="#A87E2F" stroke-width="3"/><text x="512.2" y="385.8" font-family="monospace" font-size="13" fill="#A87E2F">S1002427 - membrane-failure obliques (hover, Belle long bldg subject)</text><circle cx="530.6" cy="164.1" r="8" fill="none" stroke="#7B2FA8" stroke-width="3"/><text x="210.6" y="152.1" font-family="monospace" font-size="13" fill="#7B2FA8">S1002330 - thermal anomaly (nadir) - NEIGHBOR roof N of Patricia</text><text x="10" y="879" font-family="monospace" font-size="13" fill="#1C2B26">Skydio 2025-10-15 - green=nadir orange=oblique - big=RGB small=thermal - footprints = FITTED georef 2026-07-08</text></svg>